<svg width="117" height="118" viewBox="0 0 117 118" fill="none" xmlns="http://www.w3.org/2000/svg">
<path d="M83.2716 5.66114C90.7556 6.61452 97.8708 6.2999 105.168 6.09357C109.033 5.98431 112.164 9.10115 112.143 12.9671C112.074 26.094 111.89 45.9825 112.167 55.6168C112.258 58.7771 112.957 62.2105 113.464 65.389C114.098 69.3635 113.768 73.4519 114.396 77.3894C115.661 85.3188 114.582 93.0834 114.355 100.96C114.276 103.722 113.163 114.004 109.573 114.993C107.151 115.661 104.368 114.715 101.873 115.384C98.0026 116.421 92.7523 115.736 88.8238 115.736H50.8909C37.6614 115.736 25.7382 117.239 12.796 113.078C10.5953 112.37 7.8518 104.44 7.8518 101.976C7.8518 100.265 7.58727 96.7249 7.08179 95.0185C6.22804 92.1363 6.77001 88.7119 5.82547 85.6371C3.59222 78.3672 4.92169 69.4168 4.24494 61.9101C3.79289 56.896 2.83767 52.032 2.05651 47.1345C1.70502 44.9309 3.09297 41.7317 3.47493 39.5903C4.24926 35.2492 4.20441 31.0012 4.20441 26.6128C4.20441 20.2927 1.10063 5.63582 9.31075 2.80765C15.1273 0.80398 23.6984 3.15945 29.7361 3.15945C37.5517 3.15945 44.9946 4.56665 52.7552 4.56665C62.8555 4.56665 73.2566 4.38532 83.2716 5.66114Z" stroke="black" stroke-width="3" stroke-linecap="round" stroke-linejoin="round"/>
<path d="M57.5964 70.796V72.578C57.5964 73.85 57.5064 74.96 57.3264 75.908C57.1584 76.844 56.9724 77.624 56.7684 78.248C56.5284 78.992 56.2524 79.616 55.9404 80.12H53.6004C53.9724 79.424 54.2604 78.722 54.4644 78.014C54.6804 77.294 54.8304 76.616 54.9144 75.98C55.0104 75.332 55.0584 74.75 55.0584 74.234C55.0704 73.706 55.0584 73.28 55.0224 72.956H46.6164V70.796H57.5964ZM58.4064 82.838H45.6084V80.75H47.9304V77.258H49.7844V80.75H51.4044V77.258H53.2044V80.75H58.4064V82.838ZM67.7031 76.844H73.3911V78.932H59.4951V76.844H65.3991V75.656H61.0791V69.896H71.8251V71.354H63.4551V72.056H71.8251V73.73H63.4551V74.396H71.8251V75.656H67.7031V76.844ZM63.1491 79.868H69.5571C70.2891 79.868 70.8591 80.042 71.2671 80.39C71.6871 80.738 71.8971 81.2 71.8971 81.776V83.072C71.8971 83.42 71.8371 83.714 71.7171 83.954C71.5971 84.206 71.4351 84.41 71.2311 84.566C71.0391 84.734 70.8111 84.854 70.5471 84.926C70.2951 84.998 70.0311 85.034 69.7551 85.034H62.9511C62.6631 85.034 62.3871 84.986 62.1231 84.89C61.8591 84.806 61.6311 84.686 61.4391 84.53C61.2471 84.386 61.0911 84.206 60.9711 83.99C60.8631 83.774 60.8091 83.54 60.8091 83.288V81.776C60.8091 81.428 60.8811 81.134 61.0251 80.894C61.1811 80.654 61.3731 80.456 61.6011 80.3C61.8411 80.144 62.0991 80.036 62.3751 79.976C62.6511 79.904 62.9091 79.868 63.1491 79.868ZM68.9451 81.794H64.0491C63.7011 81.794 63.4611 81.848 63.3291 81.956C63.1971 82.064 63.1311 82.184 63.1311 82.316V82.784C63.1311 82.916 63.1551 83.018 63.2031 83.09C63.2631 83.162 63.3351 83.21 63.4191 83.234C63.5031 83.27 63.5991 83.288 63.7071 83.288C63.8151 83.288 63.9291 83.288 64.0491 83.288H69.0351C69.2511 83.288 69.4251 83.228 69.5571 83.108C69.6891 83 69.7551 82.862 69.7551 82.694V82.352C69.7551 82.172 69.6771 82.034 69.5211 81.938C69.3771 81.842 69.1851 81.794 68.9451 81.794Z" fill="black"/>
<path d="M49.9664 32.516C49.9664 34.9035 48.7704 39.8825 52.4256 40.6948C55.6778 41.4175 56.8111 36.4635 56.1233 34.2282C55.7262 32.9375 55.2347 30.2208 53.4092 30.2208C51.5783 30.2208 50.2943 30.9141 50.2943 32.8438" stroke="black" stroke-width="2" stroke-linecap="round"/>
<path d="M52.5894 42.0245C52.5894 44.5148 52.2615 46.9068 52.2615 49.4019C52.2615 50.9904 51.9336 55.7447 51.9336 54.1562" stroke="black" stroke-width="2" stroke-linecap="round"/>
<path d="M59.4751 31.8602C59.4751 33.681 59.4893 35.7868 60.313 37.4342C61.2211 39.2504 61.3486 39.2141 63.0818 39.9844C67.5615 41.9753 68 33.9207 68 31.5323" stroke="black" stroke-width="2" stroke-linecap="round"/>
<path d="M63.2896 31C63.2896 35.6154 63.2896 40.2308 63.2896 44.8462C63.2896 46.3903 63.2896 47.9345 63.2896 49.4786C63.2896 51.1784 62.2919 53.5203 64 55" stroke="black" stroke-width="2" stroke-linecap="round"/>
</svg>
