<svg width="117" height="118" viewBox="0 0 117 118" fill="none" xmlns="http://www.w3.org/2000/svg">
<path d="M83.2716 5.66114C90.7556 6.61452 97.8708 6.2999 105.168 6.09357C109.033 5.98431 112.164 9.10115 112.143 12.9671C112.074 26.094 111.89 45.9825 112.167 55.6168C112.258 58.7771 112.957 62.2105 113.464 65.389C114.098 69.3635 113.768 73.4519 114.396 77.3894C115.661 85.3188 114.582 93.0834 114.355 100.96C114.276 103.722 113.163 114.004 109.573 114.993C107.151 115.661 104.368 114.715 101.873 115.384C98.0026 116.421 92.7523 115.736 88.8238 115.736H50.8909C37.6614 115.736 25.7382 117.239 12.796 113.078C10.5953 112.37 7.8518 104.44 7.8518 101.976C7.8518 100.265 7.58727 96.7249 7.08179 95.0185C6.22804 92.1363 6.77001 88.7119 5.82547 85.6371C3.59222 78.3672 4.92169 69.4168 4.24494 61.9101C3.79289 56.896 2.83767 52.032 2.05651 47.1345C1.70502 44.9309 3.09297 41.7317 3.47493 39.5903C4.24926 35.2492 4.20441 31.0012 4.20441 26.6128C4.20441 20.2927 1.10063 5.63582 9.31075 2.80765C15.1273 0.80398 23.6984 3.15945 29.7361 3.15945C37.5517 3.15945 44.9946 4.56665 52.7552 4.56665C62.8555 4.56665 73.2566 4.38532 83.2716 5.66114Z" stroke="black" stroke-width="3" stroke-linecap="round" stroke-linejoin="round"/>
<path d="M53.9929 70.238C54.2929 70.238 54.6169 70.286 54.9649 70.382C55.3249 70.478 55.6549 70.628 55.9549 70.832C56.2549 71.036 56.5009 71.306 56.6929 71.642C56.8969 71.978 56.9989 72.386 56.9989 72.866V74.198C56.9989 74.558 56.9209 74.894 56.7649 75.206C56.6089 75.506 56.3929 75.77 56.1169 75.998C55.8529 76.214 55.5409 76.388 55.1809 76.52C54.8209 76.652 54.4369 76.718 54.0289 76.718H49.0069C48.6229 76.718 48.2569 76.652 47.9089 76.52C47.5729 76.388 47.2729 76.214 47.0089 75.998C46.7569 75.782 46.5529 75.53 46.3969 75.242C46.2409 74.954 46.1569 74.648 46.1449 74.324L46.1089 72.722C46.0969 72.35 46.1869 72.014 46.3789 71.714C46.5709 71.414 46.8169 71.156 47.1169 70.94C47.4169 70.724 47.7409 70.556 48.0889 70.436C48.4489 70.316 48.7849 70.256 49.0969 70.256L53.9929 70.238ZM58.2409 80.57H55.3249V85.016H53.2369V80.57H49.8889V85.016H47.5849V80.57H44.6689V78.266H58.2409V80.57ZM53.7409 74.864C54.0769 74.864 54.3589 74.732 54.5869 74.468C54.8149 74.204 54.9289 73.91 54.9289 73.586C54.9289 73.25 54.8149 72.956 54.5869 72.704C54.3589 72.44 54.0769 72.308 53.7409 72.308H49.3489C49.0249 72.308 48.7489 72.44 48.5209 72.704C48.2929 72.956 48.1789 73.25 48.1789 73.586C48.1789 73.91 48.2809 74.204 48.4849 74.468C48.7009 74.732 48.9889 74.864 49.3489 74.864H53.7409ZM67.3571 70.688H71.8391V72.542H70.5611C70.6211 72.758 70.6511 72.974 70.6511 73.19V74.162C70.6511 74.486 70.5731 74.774 70.4171 75.026C70.2731 75.266 70.0691 75.476 69.8051 75.656C69.5411 75.824 69.2351 75.95 68.8871 76.034C68.5391 76.118 68.1671 76.16 67.7711 76.16H64.2611C63.8411 76.16 63.4571 76.112 63.1091 76.016C62.7731 75.908 62.4851 75.764 62.2451 75.584C62.0051 75.404 61.8131 75.194 61.6691 74.954C61.5371 74.702 61.4711 74.432 61.4711 74.144V73.208C61.4711 72.944 61.5131 72.722 61.5971 72.542H60.3371V70.688H64.4591V69.248H67.3571V70.688ZM62.8571 79.868H69.2651C69.9971 79.868 70.5671 80.042 70.9751 80.39C71.3951 80.738 71.6051 81.2 71.6051 81.776V83.072C71.6051 83.42 71.5451 83.714 71.4251 83.954C71.3051 84.206 71.1431 84.41 70.9391 84.566C70.7471 84.734 70.5191 84.854 70.2551 84.926C70.0031 84.998 69.7391 85.034 69.4631 85.034H62.6591C62.3711 85.034 62.0951 84.986 61.8311 84.89C61.5671 84.806 61.3391 84.686 61.1471 84.53C60.9551 84.386 60.7991 84.206 60.6791 83.99C60.5711 83.774 60.5171 83.54 60.5171 83.288V81.776C60.5171 81.428 60.5891 81.134 60.7331 80.894C60.8891 80.654 61.0811 80.456 61.3091 80.3C61.5491 80.144 61.8071 80.036 62.0831 79.976C62.3591 79.904 62.6171 79.868 62.8571 79.868ZM73.3331 78.896H59.3291V77.042H73.3331V78.896ZM68.6531 81.794H63.7571C63.4091 81.794 63.1691 81.848 63.0371 81.956C62.9051 82.064 62.8391 82.184 62.8391 82.316V82.784C62.8391 82.916 62.8631 83.018 62.9111 83.09C62.9711 83.162 63.0431 83.21 63.1271 83.234C63.2111 83.27 63.3071 83.288 63.4151 83.288C63.5231 83.288 63.6371 83.288 63.7571 83.288H68.7431C68.9591 83.288 69.1331 83.228 69.2651 83.108C69.3971 83 69.4631 82.862 69.4631 82.694V82.352C69.4631 82.172 69.3851 82.034 69.2291 81.938C69.0851 81.842 68.8931 81.794 68.6531 81.794ZM64.7291 74.45H67.3751C67.6871 74.45 67.9511 74.396 68.1671 74.288C68.3951 74.18 68.5091 73.976 68.5091 73.676C68.5091 73.364 68.3951 73.154 68.1671 73.046C67.9511 72.926 67.6871 72.866 67.3751 72.866H64.7291C64.4171 72.866 64.1531 72.926 63.9371 73.046C63.7211 73.154 63.6131 73.364 63.6131 73.676C63.6131 73.976 63.7151 74.18 63.9191 74.288C64.1231 74.396 64.3931 74.45 64.7291 74.45Z" fill="black"/>
<path d="M49.9664 32.516C49.9664 34.9035 48.7704 39.8825 52.4256 40.6948C55.6778 41.4175 56.8111 36.4635 56.1233 34.2282C55.7262 32.9375 55.2347 30.2208 53.4092 30.2208C51.5783 30.2208 50.2943 30.9141 50.2943 32.8438" stroke="black" stroke-width="2" stroke-linecap="round"/>
<path d="M52.5894 42.0245C52.5894 44.5148 52.2615 46.9068 52.2615 49.4019C52.2615 50.9904 51.9336 55.7447 51.9336 54.1562" stroke="black" stroke-width="2" stroke-linecap="round"/>
<path d="M59.4751 31.8602C59.4751 33.681 59.4893 35.7868 60.313 37.4342C61.2211 39.2504 61.3486 39.2141 63.0818 39.9844C67.5615 41.9753 68 33.9207 68 31.5323" stroke="black" stroke-width="2" stroke-linecap="round"/>
<path d="M63.2896 31C63.2896 35.6154 63.2896 40.2308 63.2896 44.8462C63.2896 46.3903 63.2896 47.9345 63.2896 49.4786C63.2896 51.1784 62.2919 53.5203 64 55" stroke="black" stroke-width="2" stroke-linecap="round"/>
</svg>
