<svg width="150" height="39" viewBox="0 0 150 39" fill="none" xmlns="http://www.w3.org/2000/svg">
<path d="M129.386 2.19491C119.073 1.4648 66.5041 2.99817 56.0831 3.31436C52.8411 3.41273 49.189 3.53014 45.9564 3.27663C43.2667 3.0657 40.3448 2.64772 37.6655 2.64772C34.667 2.64772 31.6665 2.19491 28.6245 2.19491C26.7821 2.19491 24.9396 2.19491 23.0972 2.19491C19.4256 2.19491 15.7539 2.19491 12.0822 2.19491C10.7333 2.19491 9.38438 2.19491 8.03547 2.19491C6.62231 2.19491 6.30186 2.59335 5.21262 3.10054C2.41724 4.40216 2.65502 7.40919 2.21212 9.31413C1.64644 11.7471 2.3803 14.2724 2.48848 16.6849C2.56435 30.6105 4.60385 33.5619 6.39703 34.7045C9.24492 36.5191 12.9738 36.3585 16.7014 36.7296C22.0586 37.2629 28.0171 36.8428 33.4016 36.8428C38.693 36.8428 43.9442 36.6164 49.2332 36.6164C61.0313 36.6164 114.449 35.7107 126.247 35.7107C129.544 35.7107 132.896 35.4843 136.058 35.4843C138.432 35.4843 140.909 34.9704 143.243 34.8051C144.377 34.7249 145.089 33.6397 145.888 33.2203C146.998 32.638 146.937 32.0519 147.428 31.3084C148.372 29.8795 147.863 15.531 147.863 13.968" stroke="black" stroke-width="3" stroke-linecap="round"/>
<path d="M131.879 22.8979C132.106 21.0879 135.647 21.4984 135.647 19.1303C135.647 18.7801 132.445 17.1525 131.879 16.8697" stroke="black" stroke-width="3" stroke-linecap="round"/>
</svg>
