<svg width="117" height="118" viewBox="0 0 117 118" fill="none" xmlns="http://www.w3.org/2000/svg">
<path d="M83.2716 5.66114C90.7556 6.61452 97.8708 6.2999 105.168 6.09357C109.033 5.98431 112.164 9.10115 112.143 12.9671C112.074 26.094 111.89 45.9825 112.167 55.6168C112.258 58.7771 112.957 62.2105 113.464 65.389C114.098 69.3635 113.768 73.4519 114.396 77.3894C115.661 85.3188 114.582 93.0834 114.355 100.96C114.276 103.722 113.163 114.004 109.573 114.993C107.151 115.661 104.368 114.715 101.873 115.384C98.0026 116.421 92.7523 115.736 88.8238 115.736H50.8909C37.6614 115.736 25.7382 117.239 12.796 113.078C10.5953 112.37 7.8518 104.44 7.8518 101.976C7.8518 100.265 7.58727 96.7249 7.08179 95.0185C6.22804 92.1363 6.77001 88.7119 5.82547 85.6371C3.59222 78.3672 4.92169 69.4168 4.24494 61.9101C3.79289 56.896 2.83767 52.032 2.05651 47.1345C1.70502 44.9309 3.09297 41.7317 3.47493 39.5903C4.24926 35.2492 4.20441 31.0012 4.20441 26.6128C4.20441 20.2927 1.10063 5.63582 9.31075 2.80765C15.1273 0.80398 23.6984 3.15945 29.7361 3.15945C37.5517 3.15945 44.9946 4.56665 52.7552 4.56665C62.8555 4.56665 73.2566 4.38532 83.2716 5.66114Z" stroke="black" stroke-width="3" stroke-linecap="round" stroke-linejoin="round"/>
<path d="M57.2378 70.67H59.5778V77.87H51.9638V70.67H54.2858V72.65H57.2378V70.67ZM54.2858 76.034H57.2378V74.558H54.2858V76.034ZM66.0398 72.938V75.062H64.0058V78.212H61.8638V69.86H64.0058V72.938H66.0398ZM64.0598 85.016H54.0518V79.274H56.3378V80.75H61.8998V79.274H64.0598V85.016ZM56.3378 83.432H61.8998V82.172H56.3378V83.432Z" fill="black"/>
<path d="M49.9664 32.516C49.9664 34.9035 48.7704 39.8825 52.4256 40.6948C55.6778 41.4175 56.8111 36.4635 56.1233 34.2282C55.7262 32.9375 55.2347 30.2208 53.4092 30.2208C51.5783 30.2208 50.2943 30.9141 50.2943 32.8438" stroke="black" stroke-width="2" stroke-linecap="round"/>
<path d="M52.5894 42.0245C52.5894 44.5148 52.2615 46.9068 52.2615 49.4019C52.2615 50.9904 51.9336 55.7447 51.9336 54.1562" stroke="black" stroke-width="2" stroke-linecap="round"/>
<path d="M59.4751 31.8602C59.4751 33.681 59.4893 35.7868 60.313 37.4342C61.2211 39.2504 61.3486 39.2141 63.0818 39.9844C67.5615 41.9753 68 33.9207 68 31.5323" stroke="black" stroke-width="2" stroke-linecap="round"/>
<path d="M63.2896 31C63.2896 35.6154 63.2896 40.2308 63.2896 44.8462C63.2896 46.3903 63.2896 47.9345 63.2896 49.4786C63.2896 51.1784 62.2919 53.5203 64 55" stroke="black" stroke-width="2" stroke-linecap="round"/>
</svg>
