<svg width="117" height="118" viewBox="0 0 117 118" fill="none" xmlns="http://www.w3.org/2000/svg">
<path d="M83.2716 5.66114C90.7556 6.61452 97.8708 6.2999 105.168 6.09357C109.033 5.98431 112.164 9.10115 112.143 12.9671C112.074 26.094 111.89 45.9825 112.167 55.6168C112.258 58.7771 112.957 62.2105 113.464 65.389C114.098 69.3635 113.768 73.4519 114.396 77.3894C115.661 85.3188 114.582 93.0834 114.355 100.96C114.276 103.722 113.163 114.004 109.573 114.993C107.151 115.661 104.368 114.715 101.873 115.384C98.0026 116.421 92.7523 115.736 88.8238 115.736H50.8909C37.6614 115.736 25.7382 117.239 12.796 113.078C10.5953 112.37 7.8518 104.44 7.8518 101.976C7.8518 100.265 7.58727 96.7249 7.08179 95.0185C6.22804 92.1363 6.77001 88.7119 5.82547 85.6371C3.59222 78.3672 4.92169 69.4168 4.24494 61.9101C3.79289 56.896 2.83767 52.032 2.05651 47.1345C1.70502 44.9309 3.09297 41.7317 3.47493 39.5903C4.24926 35.2492 4.20441 31.0012 4.20441 26.6128C4.20441 20.2927 1.10063 5.63582 9.31075 2.80765C15.1273 0.80398 23.6984 3.15945 29.7361 3.15945C37.5517 3.15945 44.9946 4.56665 52.7552 4.56665C62.8555 4.56665 73.2566 4.38532 83.2716 5.66114Z" stroke="black" stroke-width="3" stroke-linecap="round" stroke-linejoin="round"/>
<path d="M45.9423 81.146H49.5423V79.076H51.8283V81.146H54.1503V79.076H56.4363V81.146H59.6223V83.216H45.9423V81.146ZM51.3423 71.03H54.1863C54.2463 71.498 54.4263 72.062 54.7263 72.722C55.0263 73.37 55.3863 74.042 55.8063 74.738C56.2263 75.434 56.6763 76.112 57.1563 76.772C57.6483 77.432 58.1223 78.008 58.5783 78.5H55.7343C55.1343 77.756 54.6003 77.042 54.1323 76.358C53.6763 75.662 53.2383 74.93 52.8183 74.162C52.4703 74.918 52.0443 75.674 51.5403 76.43C51.0363 77.174 50.5263 77.864 50.0103 78.5H46.8243C47.5443 77.804 48.1743 77.084 48.7143 76.34C49.2543 75.584 49.7103 74.864 50.0823 74.18C50.4663 73.496 50.7603 72.878 50.9643 72.326C51.1803 71.774 51.3063 71.342 51.3423 71.03ZM60.708 70.472H69.276V72.326H60.708V70.472ZM68.376 73.136L67.296 76.214H69.096V78.032H60.708V76.214H62.688L61.608 73.136H63.606L64.56 76.214H65.406L66.378 73.136H68.376ZM70.572 69.86H72.876V78.338H70.572V69.86ZM64.182 79.85H70.734C71.058 79.85 71.358 79.886 71.634 79.958C71.922 80.03 72.168 80.144 72.372 80.3C72.588 80.456 72.756 80.654 72.876 80.894C72.996 81.134 73.056 81.422 73.056 81.758V83.054C73.056 83.666 72.864 84.146 72.48 84.494C72.096 84.842 71.58 85.016 70.932 85.016H64.02C63.36 85.016 62.832 84.83 62.436 84.458C62.052 84.098 61.86 83.66 61.86 83.144V81.776C61.86 81.428 61.932 81.134 62.076 80.894C62.232 80.642 62.424 80.444 62.652 80.3C62.88 80.144 63.126 80.03 63.39 79.958C63.666 79.886 63.93 79.85 64.182 79.85ZM70.104 81.776H64.992C64.644 81.776 64.422 81.83 64.326 81.938C64.23 82.034 64.176 82.148 64.164 82.28L64.146 82.748C64.146 82.88 64.164 82.982 64.2 83.054C64.248 83.126 64.314 83.174 64.398 83.198C64.482 83.234 64.572 83.252 64.668 83.252C64.776 83.264 64.89 83.27 65.01 83.27H70.14C70.356 83.27 70.542 83.222 70.698 83.126C70.854 83.03 70.932 82.898 70.932 82.73V82.388C70.932 82.22 70.854 82.076 70.698 81.956C70.542 81.836 70.344 81.776 70.104 81.776Z" fill="black"/>
<path d="M49.9664 32.516C49.9664 34.9035 48.7704 39.8825 52.4256 40.6948C55.6778 41.4175 56.8111 36.4635 56.1233 34.2282C55.7262 32.9375 55.2347 30.2208 53.4092 30.2208C51.5783 30.2208 50.2943 30.9141 50.2943 32.8438" stroke="black" stroke-width="2" stroke-linecap="round"/>
<path d="M52.5894 42.0245C52.5894 44.5148 52.2615 46.9068 52.2615 49.4019C52.2615 50.9904 51.9336 55.7447 51.9336 54.1562" stroke="black" stroke-width="2" stroke-linecap="round"/>
<path d="M59.4751 31.8602C59.4751 33.681 59.4893 35.7868 60.313 37.4342C61.2211 39.2504 61.3486 39.2141 63.0818 39.9844C67.5615 41.9753 68 33.9207 68 31.5323" stroke="black" stroke-width="2" stroke-linecap="round"/>
<path d="M63.2896 31C63.2896 35.6154 63.2896 40.2308 63.2896 44.8462C63.2896 46.3903 63.2896 47.9345 63.2896 49.4786C63.2896 51.1784 62.2919 53.5203 64 55" stroke="black" stroke-width="2" stroke-linecap="round"/>
</svg>
