<svg width="117" height="118" viewBox="0 0 117 118" fill="none" xmlns="http://www.w3.org/2000/svg">
<path d="M83.2716 5.66114C90.7556 6.61452 97.8708 6.2999 105.168 6.09357C109.033 5.98431 112.164 9.10115 112.143 12.9671C112.074 26.094 111.89 45.9825 112.167 55.6168C112.258 58.7771 112.957 62.2105 113.464 65.389C114.098 69.3635 113.768 73.4519 114.396 77.3894C115.661 85.3188 114.582 93.0834 114.355 100.96C114.276 103.722 113.163 114.004 109.573 114.993C107.151 115.661 104.368 114.715 101.873 115.384C98.0026 116.421 92.7523 115.736 88.8238 115.736H50.8909C37.6614 115.736 25.7382 117.239 12.796 113.078C10.5953 112.37 7.8518 104.44 7.8518 101.976C7.8518 100.265 7.58727 96.7249 7.08179 95.0185C6.22804 92.1363 6.77001 88.7119 5.82547 85.6371C3.59222 78.3672 4.92169 69.4168 4.24494 61.9101C3.79289 56.896 2.83767 52.032 2.05651 47.1345C1.70502 44.9309 3.09297 41.7317 3.47493 39.5903C4.24926 35.2492 4.20441 31.0012 4.20441 26.6128C4.20441 20.2927 1.10063 5.63582 9.31075 2.80765C15.1273 0.80398 23.6984 3.15945 29.7361 3.15945C37.5517 3.15945 44.9946 4.56665 52.7552 4.56665C62.8555 4.56665 73.2566 4.38532 83.2716 5.66114Z" stroke="black" stroke-width="3" stroke-linecap="round" stroke-linejoin="round"/>
<path d="M47.217 84.854V79.85H49.485V82.82H57.981V84.854H47.217ZM53.265 72.56C53.277 73.364 53.181 74.114 52.977 74.81C52.773 75.506 52.551 76.118 52.311 76.646C52.023 77.258 51.699 77.822 51.339 78.338H48.855C49.275 77.762 49.611 77.204 49.863 76.664C50.115 76.124 50.307 75.614 50.439 75.134C50.571 74.654 50.655 74.216 50.691 73.82C50.727 73.424 50.745 73.088 50.745 72.812H45.705V70.832H53.247L53.265 72.56ZM59.583 74.036V76.052H57.639V79.742H55.443V69.86H57.639V74.036H59.583ZM62.032 79.616V81.686H70.744C70.756 82.046 70.738 82.418 70.69 82.802C70.642 83.126 70.564 83.492 70.456 83.9C70.348 84.308 70.192 84.71 69.988 85.106H72.436C72.58 84.806 72.712 84.476 72.832 84.116C72.928 83.804 73.012 83.45 73.084 83.054C73.168 82.658 73.216 82.232 73.228 81.776L73.246 79.616H62.032ZM64.192 70.598C63.94 71.378 63.64 72.17 63.292 72.974C62.992 73.658 62.62 74.402 62.176 75.206C61.744 75.998 61.24 76.754 60.664 77.474H63.454C63.706 77.102 63.922 76.76 64.102 76.448C64.282 76.136 64.444 75.836 64.588 75.548C64.732 75.248 64.864 74.954 64.984 74.666C65.104 74.378 65.224 74.072 65.344 73.748C65.596 74.276 65.842 74.78 66.082 75.26C66.286 75.668 66.502 76.082 66.73 76.502C66.97 76.91 67.174 77.234 67.342 77.474H69.88C69.628 77.102 69.334 76.628 68.998 76.052C68.662 75.476 68.326 74.864 67.99 74.216C67.666 73.568 67.366 72.926 67.09 72.29C66.814 71.654 66.616 71.09 66.496 70.598H64.192ZM70.87 78.626V69.878H73.3V78.626H70.87Z" fill="black"/>
<path d="M49.9664 32.516C49.9664 34.9035 48.7704 39.8825 52.4256 40.6948C55.6778 41.4175 56.8111 36.4635 56.1233 34.2282C55.7262 32.9375 55.2347 30.2208 53.4092 30.2208C51.5783 30.2208 50.2943 30.9141 50.2943 32.8438" stroke="black" stroke-width="2" stroke-linecap="round"/>
<path d="M52.5894 42.0245C52.5894 44.5148 52.2615 46.9068 52.2615 49.4019C52.2615 50.9904 51.9336 55.7447 51.9336 54.1562" stroke="black" stroke-width="2" stroke-linecap="round"/>
<path d="M59.4751 31.8602C59.4751 33.681 59.4893 35.7868 60.313 37.4342C61.2211 39.2504 61.3486 39.2141 63.0818 39.9844C67.5615 41.9753 68 33.9207 68 31.5323" stroke="black" stroke-width="2" stroke-linecap="round"/>
<path d="M63.2896 31C63.2896 35.6154 63.2896 40.2308 63.2896 44.8462C63.2896 46.3903 63.2896 47.9345 63.2896 49.4786C63.2896 51.1784 62.2919 53.5203 64 55" stroke="black" stroke-width="2" stroke-linecap="round"/>
</svg>
