<svg width="198" height="155" viewBox="0 0 198 155" fill="none" xmlns="http://www.w3.org/2000/svg">
<path d="M18.0908 15.2507C20.873 15.2507 23.6208 15.0187 26.3973 14.8084C28.2938 14.6647 30.2119 14.6066 32.1152 14.6609C32.8569 14.6821 33.3172 15.7969 33.6552 16.3648C34.5708 17.9029 34.2859 20.0573 34.753 21.7387C34.9413 22.4167 34.8402 23.0177 35.1953 23.6392C35.4317 24.0529 36.5893 22.2552 36.6535 21.9025C36.9374 20.341 36.6698 18.5471 36.6698 16.9546C36.6698 15.972 36.5563 14.9144 36.6862 13.9401C36.8725 12.5429 37.2919 12.5966 38.5867 12.5966C45.4727 12.5966 52.2412 11.7051 59.1155 11.4825C71.3033 11.0878 83.6348 11.1441 95.8149 11.6463C109.116 12.1949 122.506 11.7119 135.824 11.7119C136.987 11.7119 138.15 11.7119 139.314 11.7119C141.358 11.7119 141.453 11.6899 142.394 13.1536C142.897 13.9361 143.485 14.7924 143.737 15.6767C143.818 15.9593 144.666 15.8666 144.9 15.8406C145.587 15.7643 146.189 13.9077 146.375 13.3502C146.53 12.8852 146.482 11.551 147.129 11.4334C149.048 11.0844 151.132 11.0917 153.076 10.9746C159.117 10.6107 165.163 9.64753 171.213 9.64753C173.568 9.64753 175.172 10.0031 177.438 10.4667C179.337 10.855 180.131 11.3958 181.026 13.1864C182.804 16.742 183 21.4151 184.123 25.212C185.289 29.1547 185.353 33.1047 186.056 37.123C187.037 42.7258 186.995 48.3247 187.367 53.9981C187.721 59.3913 188.841 64.9053 188.841 70.2999C188.841 72.7812 186.948 75.1828 186.056 77.4759C185.401 79.16 185.008 81.6099 185.008 83.4396C185.008 84.6022 185.191 85.8521 185.663 86.9129C186.241 88.2128 187.184 88.4537 187.957 89.4196C188.764 90.429 188.786 91.5287 189.071 92.8111C189.661 95.465 189.136 98.7492 189.136 101.445C189.136 104.133 189.21 106.784 189.579 109.44C190.066 112.946 189.965 116.632 190.021 120.172C190.079 123.823 190.316 127.48 190.316 131.149C190.316 134.515 190.997 137.374 187.645 139.259C183.681 141.489 179.438 142.647 175.112 144.256C170.278 146.054 165.486 147.92 160.645 149.695C157.694 150.777 154.856 150.908 151.716 150.908C140.618 150.908 129.221 149.825 118.293 151.792C112.51 152.833 106.679 153.267 100.812 153.267C96.2077 153.267 91.485 153.327 86.9022 152.906C83.0732 152.555 79.1736 152.378 75.3681 151.792C72.3086 151.322 70.3696 149.963 67.7661 148.401C65.8391 147.245 63.7117 146.484 61.7369 145.468C60.3132 144.736 59.1562 143.571 57.6246 143.093C56.0832 142.611 56.4273 145.914 55.7732 146.713C55.1161 147.516 52.9751 147.201 52.005 147.598C47.4718 149.453 42.3668 150.539 37.5546 149.499C33.7935 148.685 29.8036 149.578 26.0368 148.401C23.7756 147.694 21.0979 148.378 18.9755 147.434C17.4667 146.764 14.9042 147.074 13.2576 147.074C12.3472 147.074 12.7824 143.568 12.7824 142.945C12.7824 140.291 13.2611 137.763 13.6672 135.146C14.1895 131.781 14.1833 128.413 14.257 125.021C14.3535 120.579 14.8468 116.123 14.8468 111.652C14.8468 107.445 14.1849 103.188 14.6174 98.9713C14.8386 96.8153 15.0374 94.509 14.8304 92.3359C14.4186 88.0118 14.5383 83.7259 14.2406 79.4092C13.761 72.4549 13.6672 65.4204 13.6672 58.4381C13.6672 55.2874 13.7915 52.1255 13.3067 49.0011C12.6644 44.8617 13.4106 40.5365 13.3723 36.3529C13.3432 33.1866 12.7824 30.0797 12.7824 26.8995C12.7824 24.4817 12.8811 22.0399 12.7661 19.6252C12.743 19.14 12.0284 15.0433 12.5531 14.9558C13.2478 14.8401 13.8659 15.2507 14.5519 15.2507C15.254 15.2507 16.8702 15.9225 17.206 15.2507" stroke="black" stroke-width="3" stroke-linecap="round"/>
<path d="M18.7789 14.6937C20.4565 12.7407 22.6071 10.6393 23.9889 8.4679C24.8253 8.8861 25.9049 9.31641 26.7741 9.12325C28.0967 8.82934 29.3697 8.99912 30.2474 9.8769C30.835 10.4645 31.6006 12.3357 32.2462 12.3017C33.5778 12.2316 34.7132 11.5431 34.6055 13.4813C34.5456 14.5593 32.5999 15.8624 31.8858 16.4304C30.5581 17.4865 29.4139 18.6828 28.4125 20.0348C27.2483 21.6064 25.1472 22.8882 23.7595 24.3273C21.8012 26.3581 19.8823 28.1891 18.0088 30.3401C15.3119 33.4366 12.3457 36.8419 8.5063 38.5483C6.89894 39.2627 6.47238 39.6109 5.26234 38.4009C3.98828 37.1268 5.07368 34.8516 4.08271 33.4202C3.75723 32.9501 3.1596 32.932 3.36183 32.2242C3.50993 31.7059 3.90053 31.2708 3.4929 30.6186C3.11813 30.019 3.54161 30.291 2.75563 30.291C2.10094 30.291 1.67873 30.3258 2.31327 29.8322C4.85332 27.8566 7.30174 25.9697 9.7187 23.7866C12.8918 20.9206 15.9913 17.939 18.7789 14.6937Z" stroke="black" stroke-width="3" stroke-linecap="round"/>
<path d="M157.581 7.28828C158.399 7.39054 160.18 9.31492 160.874 9.82775C164.308 12.3623 167.046 15.5255 170.033 18.5603C171.575 20.1274 172.916 21.842 174.538 23.3443C175.813 24.5243 177.279 25.5119 178.503 26.7357C180.061 28.2939 182.155 29.7051 184.123 30.7169C185.766 31.5622 187.084 32.9192 188.678 33.8298C189.009 34.0195 189.26 34.6383 189.726 34.5835C190.252 34.5216 190.44 32.3428 190.775 31.9129C191.623 30.8227 192.575 30.3365 193.56 29.4062C195.041 28.0077 194.781 26.3447 195.329 24.4256C195.59 23.5124 196.587 21.8871 195.264 21.3782C193.699 20.7763 192.251 19.8389 190.676 19.3139C188.503 18.5896 186.457 17.7302 184.565 16.414C182.924 15.2726 180.856 14.2251 179.404 12.8915C177.793 11.4112 175.412 10.6807 173.785 9.18879C172.089 7.63453 170.245 6.19007 168.771 4.47029C168.126 3.71767 165.383 1.6702 164.299 2.04551C162.518 2.66172 162.178 4.75327 160.53 5.22394C159.719 5.45565 157.581 5.77064 157.581 6.69847" stroke="black" stroke-width="3" stroke-linecap="round"/>
<path d="M24.2838 36.1891C24.4064 37.2926 25.7203 38.301 26.3482 39.1381" stroke="black" stroke-width="3" stroke-linecap="round"/>
<path d="M27.2329 34.4196C27.9809 34.5028 28.3391 35.5626 29.0023 35.8942" stroke="black" stroke-width="3" stroke-linecap="round"/>
<path d="M179.404 128.495C178.853 128.556 178.52 129.178 178.52 129.674" stroke="black" stroke-width="3" stroke-linecap="round"/>
<path d="M182.648 129.085C182.602 129.506 182.395 129.801 182.059 129.969" stroke="black" stroke-width="3" stroke-linecap="round"/>
<path d="M85.3295 143.24C85.3295 144.515 85.2401 145.821 85.3458 147.09C85.4354 148.165 85.9193 149.282 85.9193 150.318" stroke="black" stroke-width="3" stroke-linecap="round"/>
<path d="M87.6885 146.779C87.6885 147.362 87.7652 148.292 88.2783 148.548" stroke="black" stroke-width="3" stroke-linecap="round"/>
<path d="M32.2463 62.1408C34.8091 62.3738 40.5037 62.5923 40.5037 66.1057C40.5037 68.8028 39.7561 71.4589 39.4715 74.1337C39.2189 76.5083 40.1018 80.0491 39.0292 82.1944" stroke="black" stroke-width="3" stroke-linecap="round"/>
<path d="M44.3374 66.5644C47.2227 66.2759 49.9866 66.5644 52.8897 66.5644" stroke="black" stroke-width="3" stroke-linecap="round"/>
<path d="M45.812 72.7574C48.1751 72.7574 50.5168 72.4625 52.8898 72.4625" stroke="black" stroke-width="3" stroke-linecap="round"/>
<path d="M55.249 61.551C55.249 68.0416 55.5439 74.5174 55.5439 81.0148" stroke="black" stroke-width="3" stroke-linecap="round"/>
<path d="M44.9272 86.9129C46.7779 86.7279 48.7178 85.6191 50.5632 85.209C52.5278 84.7725 54.6667 84.3567 56.6907 84.3899C58.6986 84.4228 58.2448 88.6651 58.198 89.9275C58.1378 91.5533 56.2306 92.3542 54.8885 92.5817C53.2595 92.8578 51.7739 93.3027 50.1045 93.4664C49.0838 93.5665 46.3352 93.9402 46.1233 95.3178C45.7462 97.7683 44.2241 103.225 46.5492 105.033C47.5253 105.792 50.1748 105.486 51.3496 105.623C53.3765 105.86 55.4237 105.787 57.4608 105.787C58.9876 105.787 60.3968 105.665 61.8844 105.508C62.4573 105.448 62.9388 105.197 63.5063 105.197" stroke="black" stroke-width="3" stroke-linecap="round"/>
<path d="M66.4553 65.6797C68.4219 65.4612 70.3622 64.4159 72.4026 64.2215C73.1626 64.1492 73.9489 64.2052 74.7127 64.2052" stroke="black" stroke-width="3" stroke-linecap="round"/>
<path d="M66.4553 75.1167C68.2203 74.9562 70.0367 73.9941 71.7964 73.6422C73.6711 73.2672 75.4638 73.0524 77.3668 73.0524" stroke="black" stroke-width="3" stroke-linecap="round"/>
<path d="M68.8146 65.0899C68.8146 68.7219 68.538 72.2983 69.6338 75.8048C70.0735 77.2119 69.8078 78.545 70.4529 79.8352C71.0814 81.0922 71.1192 81.6046 72.6484 81.6046C74.3705 81.6046 76.0196 81.1097 77.7273 81.0148C78.2246 80.9872 78.617 81.1688 78.8414 80.7199" stroke="black" stroke-width="3" stroke-linecap="round"/>
<path d="M64.981 90.7467C68.5977 89.8425 72.2442 89.8996 75.8925 89.2558C78.1889 88.8506 80.3591 88.6824 82.6753 88.6824" stroke="black" stroke-width="3" stroke-linecap="round"/>
<path d="M75.5974 90.4518C76.0557 95.493 77.2544 100.66 77.3668 105.721C77.3968 107.068 77.3668 108.33 77.3668 109.621" stroke="black" stroke-width="3" stroke-linecap="round"/>
<path d="M87.6887 86.3231C87.6887 80.8881 87.047 74.9629 88.1474 69.6609C88.4385 68.2582 89.5075 67.0544 89.7366 65.565C89.9012 64.4956 90.9869 65.905 91.2931 66.2695C93.9787 69.4667 95.2967 73.0659 97.2567 76.7059C97.9793 78.0478 97.7863 79.794 98.6002 81.0148" stroke="black" stroke-width="3" stroke-linecap="round"/>
<path d="M103.614 59.4867C103.614 65.5261 106.008 71.367 106.333 77.4104C106.495 80.4082 106.857 83.3334 106.857 86.3231" stroke="black" stroke-width="3" stroke-linecap="round"/>
<path d="M97.7156 91.0416C97.7156 93.9961 98.458 100.024 101.107 102.084C102.225 102.954 104.421 102.574 105.744 102.543C106.896 102.516 107.756 101.823 108.856 101.593C109.398 101.479 110.459 101.534 110.691 101.068" stroke="black" stroke-width="3" stroke-linecap="round"/>
<path d="M110.986 66.8593C112.964 66.8593 114.784 67.1891 116.59 68.0389C117.373 68.4075 118.188 68.84 118.588 68.0389C119.711 65.7941 122.91 64.4138 123.667 62.1408" stroke="black" stroke-width="3" stroke-linecap="round"/>
<path d="M116 59.1918C116 59.9701 116.499 60.7097 116.72 61.4527C117.316 63.4469 117.908 65.4335 118.424 67.4491C118.939 69.4563 117.272 70.5946 116.589 72.4625C115.935 74.2522 114.848 75.7807 114.001 77.476C113.577 78.3244 113.468 79.2955 113.051 80.1301" stroke="black" stroke-width="3" stroke-linecap="round"/>
<path d="M117.769 69.5135C119.353 71.0979 121.663 71.7956 123.094 73.4947C124.125 74.7199 126.397 75.639 126.911 77.181" stroke="black" stroke-width="3" stroke-linecap="round"/>
<path d="M127.206 70.3982C127.206 69.0475 131.291 68.0381 132.334 67.613C133.422 67.1697 134.8 66.9083 135.758 66.2695" stroke="black" stroke-width="3" stroke-linecap="round"/>
<path d="M136.643 56.8325C137.774 62.7717 138.597 68.8496 139.15 74.8709C139.515 78.849 139.209 83.3166 140.182 87.2078" stroke="black" stroke-width="3" stroke-linecap="round"/>
<path d="M131.335 88.6824C127.05 89.4614 128.203 95.7581 129.926 98.1194C130.615 99.0633 131.51 100.3 132.826 99.725C133.851 99.2766 135.316 98.9384 136.201 98.2505C137.148 97.5133 137.061 94.4885 136.872 93.4009C136.652 92.1299 136.312 90.5757 135.447 89.5671C134.365 88.3049 132.431 87.2079 130.745 87.2079" stroke="black" stroke-width="3" stroke-linecap="round"/>
<path d="M149.324 86.9129C148.644 86.8279 149.068 84.4307 149.095 84.0622C149.471 78.8646 150.128 73.8015 150.225 68.5796C150.251 67.1939 150.305 63.3175 151.028 64.5001C151.776 65.724 152.421 66.9182 153.322 68.0553C156.02 71.4639 157.896 74.6375 159.58 78.59C160.426 80.5748 161.035 82.6146 162.005 84.5537" stroke="black" stroke-width="3" stroke-linecap="round"/>
<path d="M162.595 74.232C164.41 74.232 166.321 73.9371 168.198 73.9371" stroke="black" stroke-width="3" stroke-linecap="round"/>
<path d="M166.724 56.2427C166.724 59.8273 167.602 63.3609 168.133 66.8921C169.073 73.1486 169.736 79.4274 170.394 85.7169C170.651 88.1846 171.147 90.9401 171.147 93.4009" stroke="black" stroke-width="3" stroke-linecap="round"/>
<path fill-rule="evenodd" clip-rule="evenodd" d="M99.6674 27.7661C99.9981 27.4727 100.214 27.2808 100.514 27.1157C100.523 27.114 100.537 27.1121 100.555 27.1102C100.641 27.1012 100.767 27.0997 100.941 27.1113C101.113 27.1229 101.296 27.1445 101.499 27.1706L101.592 27.1828C101.758 27.2044 101.952 27.2297 102.12 27.2445C102.267 27.2574 102.411 27.2698 102.554 27.2821C104.865 27.4814 106.683 27.6381 108.178 28.7121C109.102 29.3768 109.894 30.6316 110.492 32.2474C111.077 33.8292 111.407 35.5706 111.535 36.9689C111.593 37.6093 111.49 38.2629 111.324 39.0944C111.307 39.1765 111.29 39.2613 111.272 39.3485L111.272 39.3486C111.124 40.0781 110.942 40.9736 110.942 41.891C110.942 42.7509 111.132 43.6093 111.499 44.3844C111.499 44.3843 111.499 44.3844 111.499 44.3847C111.501 44.3881 111.512 44.4143 111.527 44.4608C111.508 44.4681 111.487 44.4756 111.465 44.4833C111.346 44.5248 111.204 44.5634 111.02 44.6063C110.93 44.6272 110.839 44.6474 110.737 44.6699L110.737 44.6699L110.73 44.6713C110.629 44.6936 110.517 44.7184 110.404 44.745C109.581 44.9385 108.759 45.1661 107.968 45.3849L107.967 45.385C107.682 45.4641 107.4 45.542 107.124 45.6168L106.812 45.7015C105.323 46.1064 103.911 46.4902 102.656 46.4902C102.431 46.4902 102.207 46.5052 102.044 46.5161L101.981 46.5202C101.841 46.5293 101.747 46.5337 101.677 46.5337C101.248 45.9532 101.015 45.244 101 44.4994C101.122 44.3657 101.237 44.2202 101.342 44.0619C101.802 43.3726 101.616 42.4413 100.926 41.9818C100.237 41.5222 99.3056 41.7085 98.8461 42.3978C98.7124 42.5984 98.2976 42.869 97.4517 42.8649C96.6319 42.8609 95.8662 42.586 95.4907 42.2873C95.2869 42.1252 95.0371 41.7473 94.8292 41.0893C94.6323 40.4658 94.5281 39.7674 94.4818 39.1923C94.4396 38.6662 94.531 38.3826 94.6323 38.2096C94.7372 38.0304 94.9455 37.8117 95.4096 37.5796C96.1505 37.2092 96.4509 36.3082 96.0804 35.5672C96.04 35.4865 95.9934 35.411 95.9413 35.341C95.9424 32.5433 96.9617 30.0631 99.1277 28.2356C99.3435 28.0535 99.5173 27.8993 99.6674 27.7661ZM92.9647 35.6105C92.9493 35.5245 92.9413 35.4359 92.9413 35.3454C92.9413 31.7614 94.2779 28.4024 97.1931 25.9427C97.2741 25.8743 97.3681 25.7904 97.4734 25.6964L97.4734 25.6964C97.8892 25.3253 98.4817 24.7964 99.1528 24.4411C99.8651 24.064 100.681 24.0872 101.142 24.1181C101.411 24.1361 101.671 24.1681 101.882 24.1952L102.003 24.2109C102.167 24.2322 102.283 24.2473 102.382 24.256C102.569 24.2724 102.76 24.288 102.956 24.304C105.088 24.4787 107.729 24.6951 109.929 26.2761C111.564 27.4515 112.624 29.364 113.305 31.2066C113.999 33.083 114.376 35.0911 114.522 36.6973C114.624 37.8119 114.433 38.8446 114.266 39.6819L114.217 39.9251L114.217 39.9251C114.061 40.7013 113.942 41.2934 113.942 41.891C113.942 42.3132 114.036 42.7323 114.21 43.1001C114.363 43.4232 114.496 43.8654 114.553 44.3017C114.581 44.5259 114.597 44.8025 114.561 45.094C114.527 45.3724 114.431 45.7823 114.138 46.159C113.638 46.8023 112.993 47.1271 112.455 47.3152C112.074 47.4485 111.631 47.5457 111.316 47.6148L111.316 47.6148C111.23 47.6336 111.154 47.6504 111.091 47.6652C110.33 47.8444 109.591 48.0486 108.82 48.2621L108.819 48.2622C108.522 48.3445 108.219 48.4282 107.908 48.5124C107.786 48.5455 107.66 48.5801 107.53 48.6155L107.529 48.6159C106.132 48.9984 104.336 49.4902 102.656 49.4902C102.537 49.4902 102.418 49.4981 102.243 49.5095L102.176 49.5139C101.99 49.526 101.725 49.5424 101.452 49.528C100.852 49.4964 100.064 49.306 99.454 48.5599C98.7902 47.7486 98.357 46.8089 98.1473 45.828C97.9037 45.8547 97.665 45.8659 97.4371 45.8648C96.1046 45.8583 94.6389 45.4431 93.6231 44.6351C92.7294 43.9242 92.2456 42.8699 91.9686 41.993C91.6806 41.0815 91.5485 40.142 91.4915 39.4326C91.4131 38.457 91.558 37.5231 92.0432 36.6942C92.2919 36.2693 92.6064 35.9124 92.9647 35.6105Z" fill="black"/>
<path d="M100.392 47.3952C99.5212 47.4919 99.771 48.6641 99.7968 49.1803C99.8172 49.5881 100.19 50.0302 100.359 50.42C100.615 51.0114 100.767 51.6172 100.987 52.2217C101.273 53.0089 102.825 53.1297 103.483 52.9325C104.094 52.7491 104.688 52.829 105.301 52.7176C106.131 52.5667 106.9 52.1527 107.739 52.0068C108.309 51.9077 108.669 51.4193 109.177 51.1969C109.555 51.0316 110.04 51.0168 110.442 50.8828C111.391 50.5663 112.285 50.3415 113.185 49.8911C113.725 49.6211 114.524 49.1416 114.524 48.5109C114.524 47.7188 114.029 46.9912 113.772 46.2629C113.55 45.6341 113.379 44.9909 113.037 44.4199" stroke="black" stroke-width="3" stroke-linecap="round"/>
</svg>
