<svg width="106" height="112" viewBox="0 0 106 112" fill="none" xmlns="http://www.w3.org/2000/svg">
<path d="M29.2457 71.2039C26.7199 71.2039 25.1784 68.2476 24.1599 66.118C19.1483 55.6393 18.4232 43.5877 18.3475 32.1518C18.2631 19.4073 30.7348 9.99211 42.3236 7.99403C46.4455 7.28337 51.2456 6.8698 55.2804 8.26649C58.5252 9.38968 61.0508 12.614 63.3936 14.9568C70.5341 22.0974 78.406 29.6547 80.4675 39.8411C82.095 47.8827 82.4051 56.4911 77.0769 63.2724C75.2718 65.5698 73.7585 67.6118 71.4462 69.4481C70.3328 70.3322 69.0998 71.2039 70.9315 71.2039C72.7195 71.2039 72.5488 70.6881 74.7459 71.7488C80.2541 74.4079 85.8071 79.4906 89.3375 84.4331C94.2672 91.3347 99.7679 97.9748 104.444 104.988" stroke="black" stroke-width="3" stroke-linecap="round"/>
<path d="M28.7007 71.7488C14.9671 80.1875 6.98783 94.9292 2 109.893" stroke="black" stroke-width="3" stroke-linecap="round"/>
<path d="M46.138 39.054C44.6437 40.7351 45.0482 45.6841 45.0482 47.8332C45.0482 49.9011 44.9361 52.4579 47.2278 53.2218" stroke="black" stroke-width="3" stroke-linecap="round"/>
<path d="M37.4193 39.054C38.0379 38.9767 38.2751 38.4322 38.5091 37.9642" stroke="black" stroke-width="3" stroke-linecap="round"/>
<path d="M52.132 38.5091C52.1803 38.8955 52.5077 39.2606 52.6769 39.599" stroke="black" stroke-width="3" stroke-linecap="round"/>
<path d="M45.5931 60.3056C47.2179 60.3056 48.8027 59.7607 50.4974 59.7607" stroke="black" stroke-width="3" stroke-linecap="round"/>
<path d="M25.9761 48.8625C28.8262 51.3959 32.3119 53.1574 33.6048 57.0362" stroke="black" stroke-width="3" stroke-linecap="round"/>
<path d="M62.4853 45.593C62.4853 48.4469 60.8506 51.324 60.8506 54.3116" stroke="black" stroke-width="3" stroke-linecap="round"/>
<path d="M41.2338 16.7126C44.4458 13.0991 40.484 2 47.2278 2" stroke="black" stroke-width="3" stroke-linecap="round"/>
<path d="M54.8567 13.9881C54.8567 11.6185 55.2688 5.88078 57.5813 4.72456" stroke="black" stroke-width="3" stroke-linecap="round"/>
<path d="M61.3954 20.527C61.7694 17.5353 67.1833 15.4902 68.4792 12.8982" stroke="black" stroke-width="3" stroke-linecap="round"/>
</svg>
