<svg width="351" height="320" viewBox="0 0 351 320" fill="none" xmlns="http://www.w3.org/2000/svg">
<path d="M7.99617 69.1031C7.99617 70.9453 7.35949 73.4862 6.42259 75.0477C4.43643 78.358 4.58498 83.2622 3.86989 87.0419C3.22497 90.4508 2.78651 93.6638 2.96071 97.1478C3.15965 101.127 5.89993 105.269 7.36674 108.897C8.61335 111.981 10.8465 114.086 12.4022 116.975C13.913 119.781 16.368 121.461 17.9972 124.109C20.2651 127.794 24.3889 128.845 27.7883 130.787C34.4899 134.617 44.9648 133.305 52.4061 133.305C65.4461 133.305 76.9583 127.529 87.0249 119.598C95.1592 113.189 97.7182 99.9527 96.6063 90.2241C95.1452 77.4391 90.806 63.8623 81.6048 54.6611C77.8919 50.9482 71.1633 49.4842 66.6733 46.9331C62.366 44.4857 57.2056 43.9258 52.3362 43.9258C45.0036 43.9258 38.1229 45.0761 31.0754 47.0729C27.4359 48.1041 24.9299 50.5653 21.8437 52.1084" stroke="black" stroke-width="3" stroke-linecap="round"/>
<path d="M51.427 87.3566C50.9879 91.3085 48.1098 96.3984 52.6858 98.6864" stroke="black" stroke-width="3" stroke-linecap="round"/>
<path d="M40.0972 82.3212C39.9051 83.858 37.5108 83.7175 36.9501 84.8389" stroke="black" stroke-width="3" stroke-linecap="round"/>
<path d="M58.3508 81.6917C59.6267 81.8335 62.2214 83.1384 62.7569 84.2094" stroke="black" stroke-width="3" stroke-linecap="round"/>
<path d="M57.7213 86.0977C59.1212 86.2727 59.8519 87.3566 61.4979 87.3566" stroke="black" stroke-width="3" stroke-linecap="round"/>
<path d="M37.5795 90.5038C38.8736 90.5038 39.5389 89.8743 40.7266 89.8743" stroke="black" stroke-width="3" stroke-linecap="round"/>
<path d="M72.8277 98.6864C72.8277 102.047 71.5688 105.289 71.5688 108.757" stroke="black" stroke-width="3" stroke-linecap="round"/>
<path d="M24.3615 102.463C26.6575 102.75 28.7675 109.882 28.7675 111.905" stroke="black" stroke-width="3" stroke-linecap="round"/>
<path d="M46.3916 115.681C46.7977 112.027 50.756 111.901 52.9657 113.163C54.7797 114.2 55.6223 116.518 56.4625 118.199" stroke="black" stroke-width="3" stroke-linecap="round"/>
<path d="M40.0972 120.087C42.3386 120.367 43.8138 123.984 45.7621 120.087" stroke="black" stroke-width="3" stroke-linecap="round"/>
<path d="M53.9447 123.234C55.9783 123.234 60.8685 124.053 60.8685 120.717" stroke="black" stroke-width="3" stroke-linecap="round"/>
<path d="M64.0156 19.3779C64.0156 27.8874 65.6283 36.3455 66.1837 44.8349C66.7802 53.9526 66.5334 63.1166 66.5334 72.2502" stroke="black" stroke-width="3" stroke-linecap="round"/>
<path d="M77.8632 46.4435C77.8632 55.7144 82.8986 64.3955 82.8986 73.5091" stroke="black" stroke-width="3" stroke-linecap="round"/>
<path d="M90.4518 62.1793C90.9611 67.7817 94.2284 73.9041 94.2284 79.174" stroke="black" stroke-width="3" stroke-linecap="round"/>
<path d="M100.523 126.381C102.404 128.263 104.774 129.877 106.887 131.487C114.875 137.573 121.47 146.645 128.148 154.146C131.92 158.384 135.661 164.093 140.806 166.665" stroke="black" stroke-width="3" stroke-linecap="round"/>
<path d="M130.106 162.889C130.706 164.887 139.583 170.922 140.806 168.169C142.219 164.99 142.973 162.508 142.66 158.902C142.488 156.929 140.806 155.342 140.806 153.447" stroke="black" stroke-width="3" stroke-linecap="round"/>
<path d="M15.9244 62.9702C13.4583 63.2785 11.0085 64.5593 8.18864 63.8543C5.47788 63.1766 2 62.0619 2 58.9918" stroke="black" stroke-width="3" stroke-linecap="round"/>
<path d="M2.99463 51.035C2.99463 53.3029 6.68489 54.8811 8.60308 55.2344C11.6065 55.7877 14.8549 55.5107 17.9137 55.5107" stroke="black" stroke-width="3" stroke-linecap="round"/>
<path d="M13.4379 45.0674C13.6155 46.6656 17.5367 49.1679 18.9082 49.9299C20.8479 51.0075 23.1112 52.0296 25.3732 52.0296" stroke="black" stroke-width="3" stroke-linecap="round"/>
<path d="M87.0386 68.4405C87.6165 73.064 104.049 66.6487 105.439 65.954" stroke="black" stroke-width="3" stroke-linecap="round"/>
<path d="M92.5089 76.8946C96.8572 78.2861 100.078 76.3973 104.444 76.3973" stroke="black" stroke-width="3" stroke-linecap="round"/>
<path d="M92.5089 83.3596C93.9889 83.524 98.0243 83.4454 99.0843 84.4647C101.235 86.5329 102.413 88.7881 104.444 90.8191" stroke="black" stroke-width="3" stroke-linecap="round"/>
<path d="M187.991 144.508C185.351 147.148 183.676 153.901 183.515 157.438C183.091 166.769 182.051 175.849 183.404 185.176C184.534 192.959 185.839 201.617 189.869 208.55C194.065 215.766 198.971 222.127 204.899 228.055C208.353 231.509 212.188 233.429 216.558 235.514C220.1 237.205 224.746 239.775 228.687 240.432C241.651 242.593 255.354 243.873 268.498 242.587C274.669 241.983 280.643 237.509 285.931 234.547C291.461 231.451 297.063 227.92 302.315 224.353C311.827 217.891 315.397 207.803 318.035 197.25C318.886 193.844 319.328 190.431 320.162 187C320.67 184.915 320.992 181.247 320.743 179.126C320.076 173.457 318.597 168.248 317.289 162.687C316.726 160.295 315.491 156.949 313.918 155.062C310.961 151.514 309.474 146.376 307.012 142.436C304.048 137.694 300.251 133.013 296.347 129.037C292.68 125.301 289.528 121.143 285.02 118.317C278.979 114.53 273.452 113.852 266.564 113.675C258.63 113.472 250.341 112.197 242.473 113.924C233.479 115.898 225.161 118.844 218.077 124.837C213.639 128.592 209.028 131.925 204.899 136.054" stroke="black" stroke-width="3" stroke-linecap="round"/>
<path d="M218.326 132.076C217.83 133.895 214.833 135.813 213.049 136.275C208.068 137.566 200.639 136.818 195.671 136.275C192.196 135.895 188.153 135.112 185.283 132.96C184.341 132.253 183.488 131.068 182.52 130.584" stroke="black" stroke-width="3" stroke-linecap="round"/>
<path d="M192.964 114.173C199.358 118.6 206.808 120.709 214.569 121.107C219.373 121.354 223.303 120.264 227.775 119.146" stroke="black" stroke-width="3" stroke-linecap="round"/>
<path d="M290.435 132.076C292.035 131.898 293.892 128.843 294.966 127.793C298.392 124.445 301.672 120.906 304.912 117.378C310.519 111.269 318.497 105.291 322.262 97.7619" stroke="black" stroke-width="3" stroke-linecap="round"/>
<path d="M212.359 155.449C212.359 157.702 216.773 162.021 218.602 163.185C221.464 165.006 225.546 166.389 228.99 166.389C230.859 166.389 232.604 166.682 234.24 166.887C235.065 166.99 235.253 167.827 236.229 167.881C237.233 167.937 238.114 168.379 239.213 168.379" stroke="black" stroke-width="3" stroke-linecap="round"/>
<path d="M258.608 169.373C264.371 170.014 269.209 169.766 274.632 167.274C278.634 165.434 282.813 162.797 286.954 161.417" stroke="black" stroke-width="3" stroke-linecap="round"/>
<path d="M263.581 175.341C263.581 177.545 264.575 179.134 264.575 181.309" stroke="black" stroke-width="3" stroke-linecap="round"/>
<path d="M261.094 184.292C261.819 191.545 275.767 187.522 278.5 184.79" stroke="black" stroke-width="3" stroke-linecap="round"/>
<path d="M219.321 185.784C223.866 189.824 229.995 188.306 232.748 182.8" stroke="black" stroke-width="3" stroke-linecap="round"/>
<path d="M246.672 175.341C246.305 178.645 243.021 182.414 241.202 185.066C238.806 188.56 236.655 191.935 234.848 195.73C233.277 199.028 238.912 201.05 241.202 202.195" stroke="black" stroke-width="3" stroke-linecap="round"/>
<path d="M208.38 194.238C214.466 200.324 215.84 208.904 215.84 217.114" stroke="black" stroke-width="3" stroke-linecap="round"/>
<path d="M297.397 195.233C297.273 196.353 296.174 197.259 295.795 198.327C294.943 200.727 294.266 203.183 293.419 205.566C292.556 207.993 292.424 211.05 292.424 213.633" stroke="black" stroke-width="3" stroke-linecap="round"/>
<path d="M250.651 145.006C252.206 145.472 252.52 146.995 254.381 146.995C255.503 146.995 256.185 147.027 257.116 147.492" stroke="black" stroke-width="3" stroke-linecap="round"/>
<path d="M258.11 142.022C258.11 143.267 259.136 143.079 259.602 144.011" stroke="black" stroke-width="3" stroke-linecap="round"/>
<path d="M80.0763 91.3164C81.1078 92.3479 81.1261 93.4714 81.5682 94.7975" stroke="black" stroke-width="3" stroke-linecap="round"/>
<path d="M83.5574 90.3218C84.5222 90.4424 84.7939 92.5396 85.0493 93.3056" stroke="black" stroke-width="3" stroke-linecap="round"/>
<path d="M28.3569 66.9487C29.4616 66.8106 31.0393 65.2609 31.838 64.4622" stroke="black" stroke-width="3" stroke-linecap="round"/>
<path d="M29.3516 69.9324C30.0332 69.2509 31.5048 68.6099 31.8381 67.9432" stroke="black" stroke-width="3" stroke-linecap="round"/>
<path d="M195.45 179.817C195.45 182.321 197.089 187.101 199.429 188.271" stroke="black" stroke-width="3" stroke-linecap="round"/>
<path d="M197.937 179.319C198.333 179.369 199.252 181.774 199.429 182.303" stroke="black" stroke-width="3" stroke-linecap="round"/>
<path d="M303.365 172.357C304.304 173.413 304.074 175.161 304.857 176.335" stroke="black" stroke-width="3" stroke-linecap="round"/>
<path d="M306.349 174.844C307.197 175.786 307.343 176.619 307.343 177.827" stroke="black" stroke-width="3" stroke-linecap="round"/>
<path d="M238.218 215.622C242.533 215.622 245.972 216.47 250.153 214.379C253.292 212.81 256.038 212.307 257.613 209.157" stroke="black" stroke-width="3" stroke-linecap="round"/>
<path d="M259.105 206.671C259.328 204.882 262.089 208.419 262.089 209.655" stroke="black" stroke-width="3" stroke-linecap="round"/>
<path d="M239.71 224.574H244.683" stroke="black" stroke-width="3" stroke-linecap="round"/>
<path d="M335.643 121.108C335.997 124.288 337.678 127.511 337.832 130.737C337.902 132.207 338.78 134.371 337.929 135.648C336.778 137.375 336.192 139.804 334.987 141.679C331.365 147.312 323.602 144.742 318.136 144.742" stroke="black" stroke-width="3" stroke-linecap="round"/>
<path d="M329.078 145.618C330.952 145.618 332.445 145.38 333.99 146.493C335.721 147.739 336.127 150.662 336.616 152.621C337.474 156.052 337.832 160.187 337.832 163.709C337.832 165.015 338.716 170.561 337.832 171.003" stroke="black" stroke-width="3" stroke-linecap="round"/>
<path d="M338.707 191.31C337.811 191.198 338.27 187.764 338.27 187.128C338.27 185.108 339.662 183.64 341.187 182.362C342.686 181.108 344.715 180.448 346.124 179.274C346.908 178.62 348.29 179.586 348.774 178.618" stroke="black" stroke-width="3" stroke-linecap="round"/>
<path d="M337.394 168.551C337.394 170.956 338.112 176.65 340.798 177.645C343.262 178.557 346.128 178.618 348.774 178.618" stroke="black" stroke-width="3" stroke-linecap="round"/>
<path d="M151.38 188.948C151.38 193.931 156.065 201.005 150.407 204.705C146.567 207.216 142.48 206.893 138.249 206.893" stroke="black" stroke-width="3" stroke-linecap="round"/>
<path d="M152.255 193.763C152.534 196.269 155.021 202.587 157.75 203.367C160.433 204.134 163.586 202.954 166.261 202.954" stroke="black" stroke-width="3" stroke-linecap="round"/>
<path d="M142.188 208.644C146.566 208.157 148.584 205.725 151.574 210.346C154.314 214.58 155.319 220.716 155.319 225.713" stroke="black" stroke-width="3" stroke-linecap="round"/>
<path d="M161.446 203.829C159.664 207.196 156.551 209.118 155.659 213.021C154.802 216.772 156.194 219.873 156.194 223.525" stroke="black" stroke-width="3" stroke-linecap="round"/>
<path d="M74.8826 2C76.3696 3.32183 78.0292 3.04325 79.9433 3.26518C91.1017 4.55891 102.355 4.42587 113.528 5.62302C121.588 6.48662 129.91 8.2109 138.027 8.2109" stroke="black" stroke-width="3" stroke-linecap="round"/>
<path d="M108.007 6.14059C108.007 20.4036 106.972 35.1483 106.972 49.6169" stroke="black" stroke-width="3" stroke-linecap="round"/>
<path d="M106.972 29.949C110.784 30.3726 113.282 34.8327 116.346 36.62C118.672 37.9769 122.316 38.8995 123.535 41.3357" stroke="black" stroke-width="3" stroke-linecap="round"/>
<path d="M170.116 48.5817H171.151" stroke="black" stroke-width="3" stroke-linecap="round"/>
<path d="M153.554 47.5466C153.646 48.2805 154.268 48.9741 154.589 49.6169" stroke="black" stroke-width="3" stroke-linecap="round"/>
<path d="M178.397 49.6169C179.244 50.5696 179.941 51.6691 180.468 52.7223" stroke="black" stroke-width="3" stroke-linecap="round"/>
<path d="M258.104 259.254V312.047" stroke="black" stroke-width="3" stroke-linecap="round"/>
<path d="M256.034 290.309C260.122 286.675 271.306 287.203 276.737 287.203" stroke="black" stroke-width="3" stroke-linecap="round"/>
<path d="M222.909 318.351C227.809 317.862 232.576 315.829 237.343 314.728C249.81 311.852 262.454 312.73 275.069 311.623C282.507 310.971 288.82 310.183 295.369 308" stroke="black" stroke-width="3" stroke-linecap="round"/>
<path d="M226.072 91.268C226.072 85.5827 227.102 80.6185 233.106 78.617C235.67 77.7625 242.987 78.0858 240.368 74.419C238.74 72.1401 235.851 69.2731 235.262 66.4766C234.406 62.4107 235.018 59.4017 236.17 55.5276C237.661 50.5131 241.86 47.3879 246.977 46.8761C251.503 46.4235 257.504 45.0817 261.273 48.3795C266.151 52.6473 268.693 62.2408 267.031 68.5189C266.746 69.5977 266.69 71.0735 266.01 71.9795C265.673 72.4286 264.706 73.0009 265.102 73.3978C265.393 73.6887 267.28 74.1734 267.712 74.3055C270.033 75.0148 271.409 77.0709 273.016 78.7589C276.184 82.085 277.129 87.3733 277.129 91.807C277.129 93.5469 277.755 99.1247 276.108 99.9478" stroke="black" stroke-width="3" stroke-linecap="round"/>
<path d="M251.601 57.5699C250.96 58.2902 250.565 59.2965 250.069 60.1228" stroke="black" stroke-width="3" stroke-linecap="round"/>
<path d="M249.558 60.6334C249.558 63.8047 248.886 70.7754 253.643 65.7391C254.528 64.8024 254.473 61.6249 254.125 60.4064C253.834 59.389 252.098 59.0744 251.601 58.0805" stroke="black" stroke-width="3" stroke-linecap="round"/>
<path d="M245.474 57.0593V57.5699" stroke="black" stroke-width="3" stroke-linecap="round"/>
<path d="M253.643 55.5276C254.113 55.5864 253.981 55.6933 254.153 56.0381" stroke="black" stroke-width="3" stroke-linecap="round"/>
<path d="M288.873 73.3978C284.384 68.7731 284.988 63.5097 285.412 57.2862C285.721 52.7624 287.714 45.4998 291.142 42.2526C293.492 40.0262 298.979 41.2469 301.467 42.2526C305.807 44.007 311.411 48.9448 313.267 53.3718C314.492 56.2931 315.914 59.5364 315.309 62.7891C315.041 64.2331 313.381 68.1949 315.026 69.3132C320.312 72.9075 325.903 75.943 328.357 82.3613C329.953 86.5347 329.877 91.2322 331.251 95.3526" stroke="black" stroke-width="3" stroke-linecap="round"/>
<path d="M288.362 77.993C284.249 82.1064 280.015 88.4293 279.172 94.3315" stroke="black" stroke-width="3" stroke-linecap="round"/>
<path d="M297.553 63.1862C296.126 63.3646 296.252 66.4349 297.297 67.0156C298.962 67.9404 300.343 64.9033 300.871 63.9521C302.595 60.8497 298.176 56.7206 296.531 61.6545" stroke="black" stroke-width="3" stroke-linecap="round"/>
<path d="M295 55.017C295.058 55.4874 295.165 55.3551 295.51 55.5276" stroke="black" stroke-width="3" stroke-linecap="round"/>
<path d="M300.787 53.8832C300.01 53.7861 300.228 53.6094 299.943 53.0397" stroke="black" stroke-width="3" stroke-linecap="round"/>
</svg>
